<?xml version="1.0" encoding="UTF-8"?>
<!DOCTYPE svg PUBLIC "-//W3C//DTD SVG 1.1//EN" "http://www.w3.org/Graphics/SVG/1.1/DTD/svg11.dtd">
<svg version="1.1" xmlns="http://www.w3.org/2000/svg" xmlns:xlink="http://www.w3.org/1999/xlink" x="0" y="0" width="383.471" height="227.851" viewBox="0, 0, 383.471, 227.851">
  <defs>
    <clipPath id="Clip_1">
      <path d="M17.156,190.789 L19.405,190.789 L19.405,202.825 L17.156,202.825 z"/>
    </clipPath>
    <clipPath id="Clip_2">
      <path d="M22.318,194.525 L29.696,194.525 L29.696,204.034 L22.318,204.034 z"/>
    </clipPath>
    <clipPath id="Clip_3">
      <path d="M24.988,206.833 L36.982,206.833 L36.982,209.208 L24.988,209.208 z"/>
    </clipPath>
    <clipPath id="Clip_4">
      <path d="M23.404,213.633 L32.099,213.633 L32.099,221.955 L23.404,221.955 z"/>
    </clipPath>
    <clipPath id="Clip_5">
      <path d="M20.009,4.399 L356.01,4.399 L356.01,71.284 L20.009,71.284 z"/>
    </clipPath>
    <clipPath id="Clip_6">
      <path d="M52.855,127.42 L60.6,127.42 L60.6,135.166 L52.855,135.166 z"/>
    </clipPath>
    <clipPath id="Clip_7">
      <path d="M42.129,163.17 L49.875,163.17 L49.875,170.917 L42.129,170.917 z"/>
    </clipPath>
    <clipPath id="Clip_8">
      <path d="M146.699,160.489 L157.126,160.489 L157.126,170.917 L146.699,170.917 z"/>
    </clipPath>
    <clipPath id="Clip_9">
      <path d="M258.419,163.17 L266.164,163.17 L266.164,170.917 L258.419,170.917 z"/>
    </clipPath>
    <clipPath id="Clip_10">
      <path d="M128.824,130.995 L136.57,130.995 L136.57,138.742 L128.824,138.742 z"/>
    </clipPath>
    <clipPath id="Clip_11">
      <path d="M158.318,123.844 L166.063,123.844 L166.063,131.592 L158.318,131.592 z"/>
    </clipPath>
    <clipPath id="Clip_12">
      <path d="M219.987,129.356 L232.052,129.356 L232.052,141.423 L219.987,141.423 z"/>
    </clipPath>
    <clipPath id="Clip_13">
      <path d="M321.816,124.709 L362.251,124.709 L362.251,141.305 L321.816,141.305 z"/>
    </clipPath>
    <clipPath id="Clip_14">
      <path d="M336.772,178.885 L360.334,178.885 L360.334,215.307 L336.772,215.307 z"/>
    </clipPath>
    <clipPath id="Clip_15">
      <path d="M233.989,209.563 L328.728,209.563 L328.728,215.563 L233.989,215.563 z"/>
    </clipPath>
    <clipPath id="Clip_16">
      <path d="M25.744,183.313 L306.384,183.313 L306.384,188.563 L25.744,188.563 z"/>
    </clipPath>
  </defs>
  <g id="Layer_1">
    <g clip-path="url(#Clip_1)" id="g8559" opacity="0.45">
      <path d="M18.28,190.789 C18.28,190.789 18.378,190.977 18.503,191.306 C18.631,191.635 18.785,192.105 18.929,192.669 C19.216,193.798 19.404,195.302 19.405,196.807 C19.406,198.311 19.221,199.816 18.932,200.944 C18.788,201.508 18.633,201.978 18.504,202.307 C18.379,202.636 18.28,202.825 18.28,202.825 C18.28,202.825 18.182,202.636 18.057,202.307 C17.928,201.978 17.773,201.508 17.629,200.944 C17.34,199.816 17.155,198.311 17.155,196.807 C17.157,195.302 17.344,193.798 17.632,192.669 C17.776,192.105 17.93,191.635 18.058,191.306 C18.183,190.977 18.28,190.789 18.28,190.789" fill="#FFE05F" id="path8557"/>
    </g>
    <g clip-path="url(#Clip_2)" id="g8563" opacity="0.45">
      <path d="M29.696,194.525 C29.696,194.525 29.658,194.734 29.555,195.07 C29.455,195.409 29.288,195.874 29.056,196.408 C28.591,197.476 27.817,198.78 26.896,199.969 C25.974,201.158 24.905,202.233 23.986,202.948 C23.526,203.305 23.115,203.581 22.811,203.763 C22.51,203.946 22.318,204.034 22.318,204.034 C22.318,204.034 22.355,203.825 22.458,203.488 C22.558,203.149 22.723,202.683 22.955,202.148 C23.419,201.08 24.195,199.778 25.118,198.59 C26.041,197.402 27.112,196.328 28.03,195.613 C28.49,195.256 28.9,194.979 29.203,194.798 C29.504,194.614 29.696,194.525 29.696,194.525" fill="#FFE05F" id="path8561"/>
    </g>
    <g clip-path="url(#Clip_3)" id="g8567" opacity="0.45">
      <path d="M36.982,207.514 C36.982,207.514 36.802,207.627 36.485,207.779 C36.168,207.934 35.713,208.127 35.162,208.318 C34.062,208.699 32.578,209.012 31.079,209.14 C29.581,209.268 28.066,209.209 26.917,209.017 C26.343,208.92 25.861,208.805 25.522,208.704 C25.184,208.606 24.988,208.525 24.988,208.525 C24.988,208.525 25.168,208.411 25.485,208.258 C25.802,208.102 26.257,207.908 26.808,207.717 C27.907,207.335 29.391,207.023 30.891,206.899 C32.39,206.773 33.904,206.833 35.053,207.025 C35.627,207.121 36.109,207.235 36.448,207.335 C36.786,207.433 36.982,207.514 36.982,207.514" fill="#FFE05F" id="path8565"/>
    </g>
    <g clip-path="url(#Clip_4)" id="g8571" opacity="0.45">
      <path d="M32.099,221.955 C32.099,221.955 31.896,221.896 31.572,221.758 C31.246,221.623 30.799,221.41 30.292,221.123 C29.278,220.551 28.062,219.646 26.974,218.607 C25.886,217.567 24.928,216.393 24.312,215.404 C24.004,214.91 23.771,214.473 23.623,214.153 C23.472,213.834 23.404,213.633 23.404,213.633 C23.404,213.633 23.608,213.692 23.932,213.829 C24.259,213.964 24.706,214.177 25.213,214.462 C26.227,215.034 27.443,215.94 28.529,216.982 C29.615,218.023 30.572,219.198 31.189,220.186 C31.497,220.68 31.73,221.116 31.879,221.437 C32.031,221.755 32.099,221.955 32.099,221.955" fill="#FFE05F" id="path8569"/>
    </g>
    <path d="M10.18,123.697 L10.18,134.869 C10.18,140.767 15.599,146.563 21.498,146.563 L355.317,146.563 C361.216,146.563 364.93,140.767 364.93,134.869 L364.93,123.697 C364.93,122.77 365.911,121.813 365.687,121.813 L11.128,121.813 C10.905,121.813 10.18,122.77 10.18,123.697" fill="#724520" id="path8589"/>
    <path d="M13.225,123.313 C13.228,123.313 13.18,123.547 13.18,123.697 L13.18,134.869 C13.18,139.714 17.017,143.563 21.498,143.563 L355.317,143.563 C359.798,143.563 363.43,139.714 363.43,134.869 L363.43,123.697 C363.43,123.547 363.586,123.313 363.589,123.313 z M355.317,148.063 L21.498,148.063 C14.594,148.063 7.93,142.136 7.93,134.869 L7.93,123.697 C7.93,123.503 8.341,123.311 8.337,123.12 C8.319,122.322 8.506,121.434 8.758,120.468 L9.402,118.813 L367.414,118.813 L367.849,120.469 C368.1,121.434 368.018,122.331 368,123.129 C367.996,123.319 367.93,123.503 367.93,123.697 L367.93,134.869 C367.93,142.136 362.221,148.063 355.317,148.063" fill="#000000" id="path8591"/>
    <path d="M352.636,172.361 L352.636,172.7 C352.636,174.265 351.367,175.535 349.801,175.535 L26.567,175.535 C25.002,175.535 23.732,174.265 23.732,172.7 L23.732,172.7 C23.732,170.155 20.665,168.924 18.862,170.72 C14.72,174.847 12.113,180.53 12.113,186.784 L12.113,193.333 C12.113,207.631 23.812,219.329 38.11,219.329 L339.151,219.329 C353.45,219.329 365.149,207.631 365.149,193.333 L365.149,186.784 C365.149,180.274 362.012,174.382 357.339,170.221 C355.522,168.602 352.636,169.927 352.636,172.361" fill="#F7CE26" id="path8593"/>
    <path d="M20.888,172.104 C20.752,172.104 20.593,172.15 20.439,172.303 C16.511,176.217 14.348,181.358 14.348,186.784 L14.348,193.333 C14.348,206.435 25.007,217.095 38.11,217.095 L339.151,217.095 C352.254,217.095 362.914,206.435 362.914,193.333 L362.914,186.784 C362.914,181.315 360.34,175.886 355.853,171.889 C355.674,171.73 355.465,171.699 355.238,171.802 C355.1,171.864 354.87,172.018 354.87,172.361 L354.87,172.7 C354.87,175.495 352.597,177.769 349.801,177.769 L26.567,177.769 C23.772,177.769 21.498,175.495 21.498,172.7 C21.498,172.438 21.378,172.254 21.142,172.156 C21.079,172.13 20.99,172.104 20.888,172.104 M339.151,221.563 L38.11,221.563 C22.544,221.563 9.879,208.9 9.879,193.333 L9.879,186.784 C9.879,180.162 12.509,173.895 17.285,169.137 C18.757,167.671 20.943,167.237 22.856,168.028 C24.775,168.826 25.967,170.616 25.967,172.7 C25.967,173.031 26.236,173.3 26.567,173.3 L349.801,173.3 C350.131,173.3 350.401,173.031 350.401,172.7 L350.401,172.361 C350.401,170.334 351.553,168.557 353.409,167.724 C355.248,166.9 357.325,167.216 358.825,168.552 C364.263,173.395 367.383,180.041 367.383,186.784 L367.383,193.333 C367.383,208.899 354.718,221.563 339.151,221.563" fill="#000000" id="path8595"/>
    <path d="M10.18,153.191 L10.18,164.363 C10.18,170.262 15.599,175.813 21.498,175.813 L355.317,175.813 C361.216,175.813 364.93,170.262 364.93,164.363 L364.93,153.191 C364.93,152.264 365.911,151.063 365.687,151.063 L11.128,151.063 C10.905,151.063 10.18,152.264 10.18,153.191" fill="#724520" id="path8597"/>
    <path d="M13.225,152.563 C13.228,152.563 13.18,153.04 13.18,153.191 L13.18,164.363 C13.18,169.208 17.017,172.813 21.498,172.813 L355.317,172.813 C359.798,172.813 363.43,169.208 363.43,164.363 L363.43,153.191 C363.43,153.04 363.586,152.563 363.589,152.563 z M355.317,178.063 L21.498,178.063 C14.594,178.063 7.93,171.63 7.93,164.363 L7.93,153.191 C7.93,152.997 8.341,152.805 8.337,152.614 C8.319,151.816 8.506,150.806 8.758,149.84 L9.402,148.063 L367.414,148.063 L367.849,149.841 C368.1,150.806 368.018,151.764 368,152.562 C367.996,152.752 367.93,152.997 367.93,153.191 L367.93,164.363 C367.93,171.63 362.221,178.063 355.317,178.063" fill="#000000" id="path8599"/>
    <path d="M241.363,112.189 C241.363,116.138 246.373,119.227 252.553,119.227 L370.046,119.227 C376.226,119.227 381.236,116.138 381.236,112.189 C381.236,112.179 381.236,112.168 381.236,112.159 C381.226,110.605 379.862,109.396 378.309,109.396 L244.29,109.396 C242.737,109.396 241.373,110.605 241.363,112.159 C241.363,112.168 241.363,112.179 241.363,112.189" fill="#FF0000" id="path8601"/>
    <path d="M244.291,111.631 C243.937,111.631 243.599,111.895 243.598,112.174 L241.363,112.189 L243.598,112.189 C243.598,114.462 247.275,116.993 252.553,116.993 L370.047,116.993 C375.324,116.993 379.002,114.462 379.002,112.189 C379,111.895 378.664,111.631 378.309,111.631 z M370.047,121.462 L252.553,121.462 C245.025,121.462 239.129,117.388 239.129,112.189 L239.129,112.158 C239.148,109.396 241.463,107.162 244.291,107.162 L378.309,107.162 C381.137,107.162 383.452,109.396 383.471,112.144 C383.471,117.388 377.574,121.462 370.047,121.462" fill="#000000" id="path8603"/>
    <path d="M126.366,112.189 C126.366,116.138 131.376,119.227 137.556,119.227 L255.049,119.227 C261.229,119.227 266.239,116.138 266.239,112.189 C266.239,112.179 266.239,112.168 266.239,112.159 C266.228,110.605 264.865,109.396 263.312,109.396 L129.293,109.396 C127.74,109.396 126.376,110.605 126.366,112.159 C126.366,112.168 126.366,112.179 126.366,112.189" fill="#FF0000" id="path8605"/>
    <path d="M129.294,111.631 C128.939,111.631 128.602,111.895 128.601,112.174 L126.366,112.189 L128.601,112.189 C128.601,114.462 132.278,116.993 137.557,116.993 L255.049,116.993 C260.326,116.993 264.004,114.462 264.004,112.189 C264.002,111.895 263.666,111.631 263.312,111.631 z M255.049,121.462 L137.557,121.462 C130.028,121.462 124.132,117.388 124.132,112.189 L124.132,112.158 C124.15,109.396 126.466,107.162 129.294,107.162 L263.312,107.162 C266.139,107.162 268.455,109.396 268.473,112.144 C268.473,117.388 262.576,121.462 255.049,121.462" fill="#000000" id="path8607"/>
    <path d="M3.623,112.189 C3.623,116.138 8.633,119.227 14.813,119.227 L132.307,119.227 C138.487,119.227 143.497,116.138 143.497,112.189 C143.497,112.179 143.497,112.168 143.497,112.159 C143.486,110.605 142.123,109.396 140.569,109.396 L6.55,109.396 C4.997,109.396 3.634,110.605 3.623,112.159 C3.623,112.168 3.623,112.179 3.623,112.189" fill="#FF0000" id="path8609"/>
    <path d="M6.55,111.631 C6.196,111.631 5.859,111.895 5.857,112.174 L3.623,112.189 L5.857,112.189 C5.857,114.462 9.535,116.993 14.813,116.993 L132.307,116.993 C137.584,116.993 141.262,114.462 141.262,112.189 C141.26,111.895 140.923,111.631 140.569,111.631 z M132.307,121.462 L14.813,121.462 C7.285,121.462 1.389,117.388 1.389,112.189 L1.389,112.158 C1.408,109.396 3.723,107.162 6.55,107.162 L140.569,107.162 C143.396,107.162 145.712,109.396 145.731,112.144 C145.731,117.388 139.834,121.462 132.307,121.462" fill="#000000" id="path8611"/>
    <path d="M364.625,157.972 L345.141,179.164 C340.947,183.725 324.141,184.583 316.623,180.62 L275.188,158.778 C271.06,156.602 262.678,156.165 257.021,157.83 L257.021,157.83 C233.764,164.674 201.077,165.442 175.57,159.742 L164.686,157.31 C157.083,155.611 149.227,155.37 141.534,156.598 L141.534,156.598 C117.766,160.393 90.816,160.637 66.551,157.279 L66.551,157.279 C51.226,158.568 35.188,158.179 20.476,156.162 L20.476,156.162 C14.227,155.305 10.094,153.14 10.094,150.722 C8.545,146.944 11.375,142.816 15.458,142.898 L362.566,146.251 C365.353,146.278 367.597,148.545 367.597,151.332 L367.597,151.332 C367.597,153.589 366.594,155.83 364.625,157.972" fill="#FFE471" id="path8613"/>
    <path d="M264.894,154.573 C269.207,154.573 273.462,155.342 276.23,156.801 L317.666,178.644 C324.746,182.377 340.221,181.214 343.495,177.652 L362.98,156.46 L362.98,156.46 C364.561,154.74 365.363,153.015 365.363,151.332 C365.363,149.777 364.099,148.501 362.545,148.486 L15.437,145.133 C14.212,145.099 13.175,145.654 12.508,146.626 C11.84,147.6 11.714,148.784 12.162,149.876 L12.329,150.283 L12.329,150.723 C12.446,151.256 14.756,153.123 20.78,153.949 C35.386,155.95 51.149,156.333 66.364,155.053 L66.611,155.032 L66.857,155.066 C91.069,158.418 117.466,158.178 141.182,154.392 C149.191,153.113 157.263,153.362 165.173,155.131 L176.058,157.563 C201.205,163.181 233.488,162.428 256.39,155.687 C258.943,154.936 261.932,154.573 264.894,154.573 M330.03,185.383 C324.537,185.383 319.052,184.426 315.582,182.598 L274.146,160.755 C270.556,158.86 262.693,158.489 257.652,159.974 C234.087,166.91 200.906,167.695 175.084,161.923 L164.198,159.491 C156.842,157.847 149.335,157.616 141.886,158.805 C117.827,162.646 91.061,162.901 66.491,159.526 C51.032,160.808 35.021,160.411 20.174,158.377 C12.794,157.365 8.261,154.7 7.885,151.199 C7.046,148.82 7.386,146.195 8.822,144.1 C10.334,141.895 12.847,140.581 15.503,140.665 L362.587,144.018 C366.582,144.055 369.832,147.336 369.832,151.332 C369.832,154.169 368.634,156.913 366.271,159.484 L366.27,159.485 L346.786,180.678 C343.849,183.871 336.933,185.383 330.03,185.383" fill="#000000" id="path8615"/>
    <path d="M357.296,106.83 L159.765,106.83 C151.975,106.83 144.459,109.705 138.658,114.904 L124.757,127.363 C118.798,132.704 109.623,132.145 104.356,126.121 L87.487,106.83 L61.122,106.83 L54.175,115.389 C46.24,125.169 31.051,124.287 24.3,113.654 L23.992,113.169 C21.951,109.955 18.973,107.518 15.595,105.762 C12.535,104.17 10.433,100.966 10.433,97.297 L10.433,97.297 C10.433,92.053 14.723,87.763 19.966,87.763 L357.296,87.763 C362.539,87.763 366.829,92.053 366.829,97.297 L366.829,97.297 C366.829,102.54 362.539,106.83 357.296,106.83" fill="#FFE471" id="path8617"/>
    <path d="M60.058,104.596 L88.502,104.596 L106.038,124.651 C108.19,127.11 111.17,128.576 114.432,128.774 C117.694,128.968 120.832,127.88 123.266,125.699 L137.167,113.24 C143.386,107.665 151.412,104.596 159.766,104.596 L357.296,104.596 C361.321,104.596 364.596,101.321 364.596,97.297 C364.596,93.272 361.321,89.998 357.296,89.998 L19.967,89.998 C15.942,89.998 12.668,93.272 12.668,97.297 C12.668,100.025 14.185,102.508 16.626,103.779 C20.639,105.866 23.753,108.623 25.879,111.972 L26.186,112.457 C29.015,116.911 33.657,119.641 38.924,119.946 C44.198,120.256 49.118,118.077 52.441,113.981 z M115.194,133.266 C114.85,133.266 114.506,133.255 114.16,133.234 C109.696,132.963 105.618,130.959 102.674,127.591 L86.474,109.064 L62.186,109.064 L55.91,116.797 C51.67,122.023 45.391,124.801 38.665,124.407 C31.946,124.018 26.023,120.535 22.415,114.853 L22.106,114.367 C20.408,111.691 17.87,109.463 14.564,107.744 C10.638,105.701 8.199,101.698 8.199,97.297 C8.199,90.808 13.478,85.528 19.967,85.528 L357.296,85.528 C363.785,85.528 369.064,90.808 369.064,97.297 C369.064,103.785 363.785,109.064 357.296,109.064 L159.766,109.064 C152.515,109.064 145.548,111.73 140.149,116.568 L126.248,129.026 C123.175,131.781 119.284,133.266 115.194,133.266" fill="#000000" id="path8619"/>
    <path d="M351.366,94.491 L351.347,94.599 C349.348,106.034 336.286,111.674 326.593,105.288 L303.703,90.208 L291.886,101.744 C284.275,109.174 272.395,109.976 263.854,103.638 L245.757,90.208 L225.008,105.199 C217.219,110.826 206.692,110.793 198.938,105.117 L178.576,90.208 L166.207,100.723 C159.393,106.514 149.598,107.182 142.06,102.37 L123.014,90.208 L105.432,99.946 C98.336,103.876 89.684,103.726 82.729,99.553 L67.154,90.208 L56.359,97.495 C48.684,102.676 38.476,102.007 31.543,95.869 L29.933,94.445 C27.54,92.326 24.735,90.777 21.793,89.527 C18.694,88.21 16.508,85.132 16.508,81.569 L16.508,81.569 C16.508,76.817 20.395,72.929 25.147,72.929 L352.114,72.929 C356.866,72.929 360.754,76.817 360.754,81.569 L360.754,81.569 C360.754,85.132 358.567,88.21 355.469,89.527 C353.355,90.425 351.761,92.228 351.366,94.491" fill="#39B54A" id="path8621"/>
    <path d="M178.474,87.364 L200.259,103.314 C207.252,108.433 216.672,108.464 223.7,103.388 L245.775,87.439 L265.186,101.844 C272.888,107.56 283.462,106.845 290.326,100.145 L303.43,87.352 L327.822,103.422 C331.744,106.006 336.658,106.439 340.97,104.575 C345.282,102.714 348.337,98.841 349.146,94.215 L349.166,94.101 C349.679,91.176 351.709,88.698 354.595,87.471 C356.98,86.458 358.52,84.141 358.52,81.569 C358.52,78.037 355.647,75.164 352.115,75.164 L25.148,75.164 C21.616,75.164 18.742,78.037 18.742,81.569 C18.742,84.141 20.283,86.458 22.667,87.471 C26.237,88.987 29.098,90.721 31.415,92.772 L33.024,94.198 C39.196,99.659 48.277,100.256 55.109,95.644 L67.084,87.56 L83.878,97.638 C90.13,101.388 97.974,101.525 104.349,97.992 L123.095,87.61 L143.263,100.487 C150.017,104.798 158.656,104.209 164.76,99.02 z M212.03,111.646 C206.975,111.647 201.922,110.071 197.619,106.919 L178.68,93.053 L167.654,102.425 C160.045,108.892 149.276,109.629 140.859,104.254 L122.933,92.808 L106.515,101.901 C98.748,106.204 89.192,106.037 81.58,101.47 L67.225,92.857 L57.61,99.348 C49.087,105.1 37.761,104.357 30.061,97.543 L28.453,96.118 C26.503,94.392 24.039,92.908 20.92,91.583 C16.882,89.868 14.274,85.937 14.274,81.569 C14.274,75.573 19.152,70.695 25.148,70.695 L352.115,70.695 C358.111,70.695 362.989,75.573 362.989,81.569 C362.989,85.937 360.38,89.869 356.343,91.583 C354.855,92.216 353.817,93.447 353.567,94.876 L353.548,94.99 C352.48,101.098 348.439,106.217 342.742,108.678 C337.042,111.138 330.546,110.568 325.364,107.154 L303.977,93.064 L293.447,103.343 C285.003,111.584 271.998,112.463 262.522,105.433 L245.74,92.978 L226.317,107.01 C222.038,110.101 217.033,111.646 212.03,111.646" fill="#000000" id="path8623"/>
    <path d="M188.631,2.234 C98.419,2.234 24.441,30.483 17.321,66.793 C16.736,69.778 19.067,72.544 22.109,72.544 L355.153,72.544 C358.195,72.544 360.526,69.778 359.941,66.793 C352.821,30.483 278.842,2.234 188.631,2.234" fill="#F7CE26" id="path8625"/>
    <path d="M188.631,4.469 C100.699,4.469 26.414,32.034 19.514,67.224 C19.313,68.247 19.767,68.989 20.056,69.34 C20.564,69.957 21.312,70.31 22.109,70.31 L355.153,70.31 C355.95,70.31 356.698,69.957 357.207,69.34 C357.495,68.988 357.949,68.247 357.748,67.224 C350.848,32.034 276.562,4.469 188.631,4.469 M355.153,74.779 L22.109,74.779 C19.971,74.779 17.965,73.831 16.605,72.178 C15.261,70.546 14.723,68.427 15.128,66.363 C22.547,28.53 97.137,0 188.631,0 C280.124,0 354.715,28.53 362.134,66.363 C362.539,68.427 362,70.546 360.657,72.178 C359.297,73.831 357.291,74.779 355.153,74.779" fill="#000000" id="path8627"/>
    <g clip-path="url(#Clip_5)" id="g8631" opacity="0.45">
      <path d="M188.009,19.232 C268.181,19.232 335.272,41.363 352.295,71.284 C354.73,70.746 356.424,68.413 355.921,65.92 C348.942,31.319 276.431,4.4 188.009,4.4 C99.587,4.4 27.077,31.319 20.097,65.92 C19.595,68.413 21.289,70.746 23.723,71.284 C40.747,41.363 107.837,19.232 188.009,19.232" fill="#FFE05F" id="path8629"/>
    </g>
    <path d="M137.017,29.07 C137.017,29.749 135.266,30.299 133.106,30.299 C130.947,30.299 129.196,29.749 129.196,29.07 C129.196,28.391 130.947,27.841 133.106,27.841 C135.266,27.841 137.017,28.391 137.017,29.07" fill="#FFE05F" id="path8633"/>
    <path d="M112.885,36.22 C112.885,36.899 111.135,37.45 108.975,37.45 C106.816,37.45 105.065,36.899 105.065,36.22 C105.065,35.542 106.816,34.991 108.975,34.991 C111.135,34.991 112.885,35.542 112.885,36.22" fill="#FFE05F" id="path8635"/>
    <path d="M84.285,46.945 C84.285,47.624 82.534,48.175 80.374,48.175 C78.215,48.175 76.465,47.624 76.465,46.945 C76.465,46.267 78.215,45.716 80.374,45.716 C82.534,45.716 84.285,46.267 84.285,46.945" fill="#FFE05F" id="path8637"/>
    <path d="M90.541,36.22 C90.541,36.899 88.791,37.45 86.631,37.45 C84.472,37.45 82.721,36.899 82.721,36.22 C82.721,35.542 84.472,34.991 86.631,34.991 C88.791,34.991 90.541,35.542 90.541,36.22" fill="#FFE05F" id="path8639"/>
    <path d="M137.911,47.839 C137.911,48.517 136.16,49.068 134,49.068 C131.841,49.068 130.09,48.517 130.09,47.839 C130.09,47.16 131.841,46.609 134,46.609 C136.16,46.609 137.911,47.16 137.911,47.839" fill="#FFE05F" id="path8641"/>
    <path d="M146.848,36.22 C146.848,36.899 145.097,37.45 142.937,37.45 C140.778,37.45 139.027,36.899 139.027,36.22 C139.027,35.542 140.778,34.991 142.937,34.991 C145.097,34.991 146.848,35.542 146.848,36.22" fill="#FFE05F" id="path8643"/>
    <path d="M170.086,23.707 C170.086,24.386 168.335,24.937 166.175,24.937 C164.016,24.937 162.265,24.386 162.265,23.707 C162.265,23.029 164.016,22.478 166.175,22.478 C168.335,22.478 170.086,23.029 170.086,23.707" fill="#FFE05F" id="path8645"/>
    <path d="M177.235,44.264 C177.235,44.943 175.485,45.493 173.325,45.493 C171.166,45.493 169.415,44.943 169.415,44.264 C169.415,43.585 171.166,43.035 173.325,43.035 C175.485,43.035 177.235,43.585 177.235,44.264" fill="#FFE05F" id="path8647"/>
    <path d="M211.198,48.733 C211.198,49.411 209.448,49.962 207.288,49.962 C205.129,49.962 203.378,49.411 203.378,48.733 C203.378,48.054 205.129,47.503 207.288,47.503 C209.448,47.503 211.198,48.054 211.198,48.733" fill="#FFE05F" id="path8649"/>
    <path d="M192.43,26.389 C192.43,27.067 190.679,27.618 188.519,27.618 C186.36,27.618 184.609,27.067 184.609,26.389 C184.609,25.71 186.36,25.16 188.519,25.16 C190.679,25.16 192.43,25.71 192.43,26.389" fill="#FFE05F" id="path8651"/>
    <path d="M219.242,35.326 C219.242,36.005 217.492,36.556 215.332,36.556 C213.172,36.556 211.422,36.005 211.422,35.326 C211.422,34.648 213.172,34.097 215.332,34.097 C217.492,34.097 219.242,34.648 219.242,35.326" fill="#FFE05F" id="path8653"/>
    <path d="M235.33,27.283 C235.33,27.961 233.58,28.512 231.42,28.512 C229.261,28.512 227.51,27.961 227.51,27.283 C227.51,26.604 229.261,26.053 231.42,26.053 C233.58,26.053 235.33,26.604 235.33,27.283" fill="#FFE05F" id="path8655"/>
    <path d="M251.418,47.839 C251.418,48.517 249.667,49.068 247.507,49.068 C245.348,49.068 243.598,48.517 243.598,47.839 C243.598,47.16 245.348,46.609 247.507,46.609 C249.667,46.609 251.418,47.16 251.418,47.839" fill="#FFE05F" id="path8657"/>
    <path d="M272.868,36.22 C272.868,36.899 271.117,37.45 268.957,37.45 C266.798,37.45 265.048,36.899 265.048,36.22 C265.048,35.542 266.798,34.991 268.957,34.991 C271.117,34.991 272.868,35.542 272.868,36.22" fill="#FFE05F" id="path8659"/>
    <g clip-path="url(#Clip_6)" id="g8663" opacity="0.23">
      <path d="M60.6,131.294 C60.6,133.432 58.866,135.167 56.727,135.167 C54.588,135.167 52.854,133.432 52.854,131.294 C52.854,129.154 54.588,127.42 56.727,127.42 C58.866,127.42 60.6,129.154 60.6,131.294" fill="#5E3415" id="path8661"/>
    </g>
    <g clip-path="url(#Clip_7)" id="g8667" opacity="0.46">
      <path d="M49.875,167.044 C49.875,169.183 48.141,170.917 46.002,170.917 C43.863,170.917 42.129,169.183 42.129,167.044 C42.129,164.905 43.863,163.17 46.002,163.17 C48.141,163.17 49.875,164.905 49.875,167.044" fill="#5E3415" id="path8665"/>
    </g>
    <g clip-path="url(#Clip_8)" id="g8671" opacity="0.45">
      <path d="M157.126,165.703 C157.126,168.583 154.792,170.917 151.912,170.917 C149.033,170.917 146.699,168.583 146.699,165.703 C146.699,162.823 149.033,160.489 151.912,160.489 C154.792,160.489 157.126,162.823 157.126,165.703" fill="#5E3415" id="path8669"/>
    </g>
    <g clip-path="url(#Clip_9)" id="g8675" opacity="0.75">
      <path d="M266.165,167.044 C266.165,169.183 264.431,170.917 262.292,170.917 C260.152,170.917 258.419,169.183 258.419,167.044 C258.419,164.905 260.152,163.17 262.292,163.17 C264.431,163.17 266.165,164.905 266.165,167.044" fill="#5E3415" id="path8673"/>
    </g>
    <g clip-path="url(#Clip_10)" id="g8679" opacity="0.55">
      <path d="M136.57,134.868 C136.57,137.007 134.836,138.742 132.697,138.742 C130.558,138.742 128.824,137.007 128.824,134.868 C128.824,132.729 130.558,130.994 132.697,130.994 C134.836,130.994 136.57,132.729 136.57,134.868" fill="#5E3415" id="path8677"/>
    </g>
    <g clip-path="url(#Clip_11)" id="g8683" opacity="0.65">
      <path d="M166.064,127.718 C166.064,129.857 164.33,131.592 162.191,131.592 C160.051,131.592 158.318,129.857 158.318,127.718 C158.318,125.579 160.051,123.844 162.191,123.844 C164.33,123.844 166.064,125.579 166.064,127.718" fill="#5E3415" id="path8681"/>
    </g>
    <g clip-path="url(#Clip_12)" id="g8687" opacity="0.33">
      <path d="M232.052,135.39 C232.052,138.722 229.351,141.424 226.02,141.424 C222.688,141.424 219.987,138.722 219.987,135.39 C219.987,132.058 222.688,129.356 226.02,129.356 C229.351,129.356 232.052,132.058 232.052,135.39" fill="#5E3415" id="path8685"/>
    </g>
    <g clip-path="url(#Clip_13)" id="g8691" opacity="0.45">
      <path d="M356.509,141.273 L338.633,141.273 C337.282,141.273 333.46,141.374 329.628,141.22 C324.418,141.01 320.743,136.03 322.099,130.995 L322.099,130.995 C326.862,128.004 331.717,125.372 334.761,125.372 L352.747,125.224 C355.792,125.224 363.696,122.021 362.02,131.59 L362.02,135.761 C362.02,138.805 359.553,141.273 356.509,141.273" fill="#5E3415" id="path8689"/>
    </g>
    <g clip-path="url(#Clip_14)" id="g8695" opacity="0.45">
      <path d="M339.45,215.307 C338.119,215.307 336.964,214.316 336.793,212.962 C336.608,211.492 337.648,210.151 339.117,209.965 C344.32,209.309 348.289,207.143 350.917,203.528 C356.902,195.292 354.496,182.201 354.471,182.069 C354.194,180.614 355.148,179.211 356.603,178.933 C358.061,178.653 359.461,179.611 359.74,181.066 C359.859,181.695 362.59,196.589 355.255,206.682 C351.721,211.542 346.519,214.437 339.79,215.286 C339.675,215.3 339.562,215.307 339.45,215.307" fill="#FFE05F" id="path8693"/>
    </g>
    <g clip-path="url(#Clip_15)" id="g8699" opacity="0.45">
      <path d="M326.047,215.563 L236.671,215.563 C235.19,215.563 233.989,214.045 233.989,212.563 C233.989,211.082 235.19,209.563 236.671,209.563 L326.047,209.563 C327.528,209.563 328.728,211.082 328.728,212.563 C328.728,214.045 327.528,215.563 326.047,215.563" fill="#FFE05F" id="path8697"/>
    </g>
    <g clip-path="url(#Clip_16)" id="g8703" opacity="0.45">
      <path d="M303.703,188.563 L28.425,188.563 C26.945,188.563 25.744,187.42 25.744,185.938 C25.744,184.457 26.945,183.313 28.425,183.313 L303.703,183.313 C305.184,183.313 306.384,184.457 306.384,185.938 C306.384,187.42 305.184,188.563 303.703,188.563" fill="#FFE471" id="path8701"/>
    </g>
  </g>
</svg>
